<?xml version="1.0" standalone="no"?><!DOCTYPE svg PUBLIC "-//W3C//DTD SVG 1.1//EN" "http://www.w3.org/Graphics/SVG/1.1/DTD/svg11.dtd"><svg t="1662909597705" class="icon" viewBox="0 0 1024 1024" version="1.1" xmlns="http://www.w3.org/2000/svg" p-id="10772" xmlns:xlink="http://www.w3.org/1999/xlink" width="200" height="200"><path d="M963.488 375.584L375.776 963.2a96 96 0 0 1-135.616 0l-180.832-180.736a96 96 0 0 1 0-135.616L647.04 59.136a96 96 0 0 1 135.616 0L963.488 240a96 96 0 0 1 0 135.584z m-44.8-90.4L737.792 104a32 32 0 0 0-45.248 0l-45.28 45.28L737.792 240l-45.28 45.184-90.496-90.592 17.408-17.44-116.416 116.544 31.136-31.296 90.496 90.592-45.248 45.312-90.528-90.464-105.6 105.6 37.728-37.76 90.496 90.592-45.248 45.44-90.496-90.592L265.6 531.488l42.24-42.432 90.496 90.592-45.216 45.312-90.528-90.56-158.4 158.56a32 32 0 0 0 0 45.312l181.024 181.216a32 32 0 0 0 45.248 0l588.32-588.8a32 32 0 0 0 0-45.504zM149.472 647.616l45.248-45.312 90.496 90.592L240 738.208z" p-id="10773"></path></svg>