<?xml version="1.0" standalone="no"?><!DOCTYPE svg PUBLIC "-//W3C//DTD SVG 1.1//EN" "http://www.w3.org/Graphics/SVG/1.1/DTD/svg11.dtd"><svg t="1662891380026" class="icon" viewBox="0 0 1024 1024" version="1.1" xmlns="http://www.w3.org/2000/svg" p-id="5360" xmlns:xlink="http://www.w3.org/1999/xlink" width="200" height="200"><path d="M816.385914 136.216109c0-13.970148-5.527889-26.714378-14.430636-35.772667-8.599848-9.059312-20.730096-14.586177-33.931742-14.586177H256.134053c-13.362306 0-25.337011 5.526866-34.086261 14.586177-8.906839 9.058288-14.433705 21.802518-14.433706 35.772667v751.566759c0 13.969125 5.526866 26.711308 14.433706 35.772666 8.749251 9.060335 20.723956 14.589247 34.086261 14.589248h511.889483c13.201647 0 25.331894-5.527889 33.931742-14.589248 8.901723-9.061358 14.430635-21.803542 14.430636-35.772666V136.216109z m14.588224-64.025071c16.12318 16.429148 25.944853 39.15264 25.944853 64.024048v751.566758c0 24.871407-9.821673 47.594899-25.944853 64.023025-16.12318 16.582644-38.386185 26.870944-62.950602 26.870943H256.134053c-24.722005 0-46.987057-10.2883-63.104097-26.870943-16.122157-16.429148-25.948947-39.15264-25.948947-64.023025v-751.565735c0-24.872431 9.827813-47.595923 25.948947-64.024048 16.11704-16.582644 38.382092-26.867874 63.104097-26.867873h511.889483c24.56544 0 46.827421 10.284207 62.950602 26.86685z" p-id="5361"></path><path d="M288.833737 126.390343h446.331503c11.209274 0 21.343055 4.606915 28.711868 11.974705 7.37393 7.37086 11.974705 17.502594 11.974705 28.711868V309.099253c0 11.20825-4.600775 21.337938-11.974705 28.711867-7.36779 7.36779-17.502594 11.822233-28.711868 11.822233H288.833737c-11.209274 0-21.338962-4.454443-28.711868-11.822233-7.36779-7.37393-11.822233-17.502594-11.822233-28.711867V167.076916c0-11.20825 4.454443-21.339985 11.822233-28.711868 7.37393-7.36779 17.502594-11.974705 28.711868-11.974705z m446.331503 40.686573H288.833737V309.099253h446.331503V167.076916z m0 0z m-446.331503 0zM735.16524 309.099253z m-446.331503 0zM288.833737 390.319926h60.801663c11.209274 0 21.343055 4.45342 28.712891 11.822233 7.36779 7.372906 11.974705 17.502594 11.974705 28.710845v60.802686c0 11.21132-4.606915 21.341008-11.974705 28.714938-7.368813 7.368813-17.502594 11.974705-28.712891 11.974705h-60.801663c-11.209274 0-21.338962-4.605892-28.711868-11.974705-7.36779-7.372906-11.822233-17.502594-11.822233-28.714938v-60.802686c0-11.20825 4.454443-21.337938 11.822233-28.710845 7.37393-7.368813 17.502594-11.822233 28.711868-11.822233z m60.801663 40.533078h-60.801663v60.802686h60.801663v-60.802686z m0 0z m-60.801663 0z m60.801663 60.801663z m-60.801663 0z m195.758085-101.334741h60.956181c11.20825 0 21.343055 4.45342 28.711868 11.822233 7.36779 7.372906 11.822233 17.502594 11.822233 28.710845v60.802686c0 11.21132-4.454443 21.341008-11.822233 28.714938-7.36779 7.368813-17.502594 11.974705-28.711868 11.974705h-60.956181c-11.049638 0-21.183419-4.605892-28.552233-11.974705-7.372906-7.372906-11.974705-17.502594-11.974705-28.714938v-60.802686c0-11.20825 4.601799-21.337938 11.974705-28.710845a40.277251 40.277251 0 0 1 28.552233-11.822233z m60.956181 40.533078h-60.956181v60.802686h60.956181v-60.802686z m0 0z m-60.956181 0h0.158612-0.158612z m60.956181 60.801663z m-60.956181 0h0.158612-0.158612 0.158612-0.158612z m-195.758085 81.224767h60.801663c11.209274 0 21.343055 4.606915 28.712891 11.974705 7.36779 7.215318 11.974705 17.502594 11.974705 28.557349v60.956182c0 11.207227-4.606915 21.337938-11.974705 28.711868-7.368813 7.215318-17.502594 11.82121-28.712891 11.821209h-60.801663c-11.209274 0-21.338962-4.605892-28.711868-11.821209-7.36779-7.37393-11.822233-17.503618-11.822233-28.711868v-60.956182c0-11.054755 4.454443-21.342031 11.822233-28.557349 7.37393-7.368813 17.502594-11.974705 28.711868-11.974705z m60.801663 40.532054h-60.801663v60.956182h60.801663v-60.956182z m0 0z m-60.801663 0z m60.801663 60.956182z m-60.801663 0z m195.758085-101.488236h60.956181c11.20825 0 21.343055 4.606915 28.711868 11.974705 7.36779 7.215318 11.822233 17.502594 11.822233 28.557349v60.956182c0 11.207227-4.454443 21.337938-11.822233 28.711868-7.36779 7.215318-17.502594 11.82121-28.711868 11.821209h-60.956181c-11.049638 0-21.183419-4.605892-28.552233-11.821209-7.372906-7.37393-11.974705-17.503618-11.974705-28.711868v-60.956182c0-11.054755 4.601799-21.342031 11.974705-28.557349 7.368813-7.368813 17.502594-11.974705 28.552233-11.974705z m60.956181 40.532054h-60.956181v60.956182h60.956181v-60.956182z m0 0z m-60.956181 0h0.158612-0.158612 0.158612-0.158612z m60.956181 60.956182z m-60.956181 0h0.158612-0.158612z m-195.758085 81.067178h60.801663c11.209274 0 21.343055 4.601799 28.712891 11.974706 7.36779 7.36779 11.974705 17.502594 11.974705 28.711867v60.796547c0 11.209274-4.606915 21.343055-11.974705 28.711868-7.368813 7.37393-17.502594 11.975729-28.712891 11.975728h-60.801663c-11.209274 0-21.338962-4.601799-28.711868-11.975728-7.36779-7.36779-11.822233-17.502594-11.822233-28.711868v-60.796547c0-11.20825 4.454443-21.343055 11.822233-28.711867 7.37393-7.372906 17.502594-11.974705 28.711868-11.974706z m60.801663 40.686573h-60.801663v60.796547h60.801663v-60.796547z m0 0z m-60.801663 0z m60.801663 60.796547z m-60.801663 0z m195.758085-101.48312h60.956181c11.20825 0 21.343055 4.601799 28.711868 11.974706 7.36779 7.36779 11.822233 17.502594 11.822233 28.711867v60.796547c0 11.209274-4.454443 21.343055-11.822233 28.711868-7.36779 7.37393-17.502594 11.975729-28.711868 11.975728h-60.956181c-11.049638 0-21.183419-4.601799-28.552233-11.975728-7.372906-7.36779-11.974705-17.502594-11.974705-28.711868v-60.796547c0-11.20825 4.601799-21.343055 11.974705-28.711867 7.368813-7.372906 17.502594-11.974705 28.552233-11.974706z m60.956181 40.686573h-60.956181v60.796547h60.956181v-60.796547z m0 0z m-60.956181 0h0.158612-0.158612 0.158612-0.158612z m60.956181 60.796547z m-60.956181 0h0.158612-0.158612zM674.368693 390.319926h60.796547c11.209274 0 21.343055 4.45342 28.711868 11.822233 7.37393 7.372906 11.974705 17.502594 11.974705 28.710845v60.802686c0 11.21132-4.600775 21.341008-11.974705 28.714938-7.36779 7.368813-17.502594 11.974705-28.711868 11.974705h-60.796547c-11.209274 0-21.343055-4.605892-28.711868-11.974705-7.37393-7.372906-11.828373-17.502594-11.828372-28.714938v-60.802686c0-11.20825 4.454443-21.337938 11.828372-28.710845 7.368813-7.368813 17.502594-11.822233 28.711868-11.822233z m60.796547 40.533078h-60.796547v60.802686h60.796547v-60.802686z m0 0z m-60.796547 0z m60.796547 60.801663z m-60.796547 0zM668.534836 572.879434h72.464261c9.675341 0 18.270072 3.84046 24.570556 10.133781 6.294344 6.294344 10.28216 15.042571 10.28216 24.716889v255.022744c0 9.520822-3.986793 18.275189-10.28216 24.570556-6.29946 6.293321-15.048711 10.28216-24.570556 10.28216H668.534836c-9.521845 0-18.275189-3.987816-24.570556-10.28216-6.294344-6.294344-10.134804-15.049734-10.134804-24.570556V607.730104c0-9.520822 3.84046-18.270072 10.134804-24.563393l0.153496-0.153496c6.294344-6.294344 14.895215-10.133781 24.41706-10.133781z m66.630404 40.532054h-60.796547v243.50648h60.796547V613.411488z" p-id="5362"></path></svg>