<?xml version="1.0" standalone="no"?><!DOCTYPE svg PUBLIC "-//W3C//DTD SVG 1.1//EN" "http://www.w3.org/Graphics/SVG/1.1/DTD/svg11.dtd"><svg t="1662891450186" class="icon" viewBox="0 0 1036 1024" version="1.1" xmlns="http://www.w3.org/2000/svg" p-id="8588" xmlns:xlink="http://www.w3.org/1999/xlink" width="202.34375" height="200"><path d="M806.47259 1024H229.625709a123.886578 123.886578 0 0 1-123.402647-134.049149l33.149339-396.098299a124.37051 124.37051 0 0 1 123.16068-113.482042H774.291115a124.37051 124.37051 0 0 1 123.160681 113.482042l33.149338 396.098299a123.886578 123.886578 0 0 1-123.402646 134.049149zM262.533081 429.973535a75.009452 75.009452 0 0 0-74.041588 68.234405L155.584121 895.274102a74.283554 74.283554 0 0 0 74.041588 80.574669h576.846881A74.283554 74.283554 0 0 0 880.514178 895.274102L846.880907 498.20794a75.009452 75.009452 0 0 0-72.589792-68.234405z" p-id="8589"></path><path d="M493.36862 232.045369h49.603025v173.247637h-49.603025z" p-id="8590"></path><path d="M846.880907 281.406427H188.975425a123.402647 123.402647 0 0 1-114.933837-77.671077L0 18.389414 45.973535 0 120.982987 185.345936a74.041588 74.041588 0 0 0 67.992438 46.699433H846.880907a74.041588 74.041588 0 0 0 68.960303-46.699433L990.124764 0l45.973535 18.389414-74.041588 185.345936A123.402647 123.402647 0 0 1 846.880907 281.406427zM518.049149 875.432892A173.247637 173.247637 0 1 1 691.296786 701.701323a173.489603 173.489603 0 0 1-173.247637 173.731569z m0-296.892249A123.886578 123.886578 0 1 0 641.693762 701.701323a123.644612 123.644612 0 0 0-123.644613-123.16068z" p-id="8591"></path><path d="M500.33724 684.787902l99.06087-99.06087 35.085066 35.085066-99.085066 99.06087z" p-id="8592"></path></svg>